<svg xmlns="http://www.w3.org/2000/svg" width="586.805" height="470.263"><g transform="translate(-8.716 -7.219)"><path d="M79.694 298.712s-32.846-64.367-18.427-118.967a109.469 109.469 0 0 0-3.963-69.137 184.151 184.151 0 0 0-15.51-29.863" fill="none" stroke="#535461" stroke-miterlimit="10" stroke-width="2"/><path d="M50.677 46.249c1.567 8.351-9.006 35.4-9.006 35.4S22.013 60.27 20.445 51.925a15.381 15.381 0 0 1 30.225-5.676zm33.667 41.56c-3.224 7.836-26.8 24.818-26.8 24.818s-4.886-28.624-1.679-36.488a15.381 15.381 0 1 1 28.462 11.67zm13.758 79.228c-6.75 5.161-35.66 7.892-35.66 7.892s10.232-27.18 16.982-32.335a15.381 15.381 0 1 1 18.678 24.443zm-3.124 62.292c-5.782 6.224-33.818 13.8-33.818 13.8s5.491-28.518 11.273-34.742a15.381 15.381 0 1 1 22.54 20.934zM26.104 120.194c7.08 4.7 36.108 5.485 36.108 5.485s-12.034-26.43-19.115-31.126a15.382 15.382 0 1 0-17 25.641zm-2.703 72.899c8.161 2.362 36.1-5.6 36.1-5.6s-19.389-21.617-27.55-23.979a15.382 15.382 0 1 0-8.55 29.552zm7.092 71.207c7.646 3.705 36.516.61 36.516.61s-15.46-24.583-23.1-28.288A15.383 15.383 0 0 0 30.476 264.3z" fill="#6c63ff"/><path d="M50.677 46.249c1.567 8.351-9.006 35.4-9.006 35.4S22.013 60.27 20.445 51.925a15.381 15.381 0 0 1 30.225-5.676zm33.667 41.56c-3.224 7.836-26.8 24.818-26.8 24.818s-4.886-28.624-1.679-36.488a15.381 15.381 0 1 1 28.462 11.67zm13.758 79.228c-6.75 5.161-35.66 7.892-35.66 7.892s10.232-27.18 16.982-32.335a15.381 15.381 0 1 1 18.678 24.443zm-3.124 62.292c-5.782 6.224-33.818 13.8-33.818 13.8s5.491-28.518 11.273-34.742a15.381 15.381 0 1 1 22.54 20.934zM26.104 120.194c7.08 4.7 36.108 5.485 36.108 5.485s-12.034-26.43-19.115-31.126a15.382 15.382 0 1 0-17 25.641zm-2.703 72.899c8.161 2.362 36.1-5.6 36.1-5.6s-19.389-21.617-27.55-23.979a15.382 15.382 0 1 0-8.55 29.552zm7.092 71.207c7.646 3.705 36.516.61 36.516.61s-15.46-24.583-23.1-28.288A15.383 15.383 0 0 0 30.476 264.3z" fill="#fc6681"/><path d="M515.621 178.741s41.694-65.532 46.731-93.518a360.3 360.3 0 0 1 14.553-53.734" fill="none" stroke="#535461" stroke-miterlimit="10" stroke-width="2"/><path d="m586.42 87.462-26.307 2.239s13.993 24.068 26.307-2.239z" fill="#fe7ebb"/><path d="m540.523 72.909 20.833 16.685s-26.99 10.741-20.833-16.685zm49.258-8.396-23.687 3.174s20.887 16.976 23.687-3.174zm-39.183-8.396 15.639 10.976s-18.997 8.055-15.639-10.976zm21.443-9.968s19.417-5.144 22.215-4.024 1.12 13.433-6.717 13.993-15.498-9.969-15.498-9.969zm-13.047-14.66s12.314 11.754 12.873 14.553-10.075 9.515-15.672 0 2.799-14.553 2.799-14.553z" fill="#fe7ebb"/><circle cx="5.597" cy="5.597" r="5.597" transform="translate(576.34 27.012)" fill="#ffd037"/><circle cx="5.597" cy="5.597" r="5.597" transform="translate(566.265 24.213)" fill="#ffd037"/><path d="M130.907 67.871c-2.877 3.493-3.985 8.4-5.228 13.025-9.985 37.216-34.58 67.167-62.594 88.537-11.861 9.056-26.307 21.208-23.71 37.44 1.394 8.72 7.528 15.112 12.1 22.243 9.56 14.872 12.655 35.095 8.1 52.894-5.183 20.256-19.657 39.181-15.174 59.644 2.765 12.627 12.146 21.583 21.169 29.3q21.107 18.04 43.563 33.79c10.036 7.041 20.71 13.892 32.4 14.782 10.3.789 20.385-3.123 30.158-6.991 8.541-3.358 17.3-6.89 24.2-13.657 4.478-4.416 8.094-10.12 13.092-13.73 11.754-8.491 26.833-3.106 40.3.509a140.333 140.333 0 0 0 96.048-8.793c46.4-21.829 81.759-67.586 127.124-92.153 19.512-10.568 40.737-17.122 58.8-30.729a109.847 109.847 0 0 0 25.848-27.986 120.947 120.947 0 0 0 18.93-74.236c-2.121-26.3-14.088-51.646-32.856-66.489-20.095-15.891-45.473-18.861-68.341-28.404-23.615-9.857-44.615-26.8-68-37.367a139.052 139.052 0 0 0-119.94 2.709c-25.451 12.846-51.243 42.88-79.593 45.136-20.206 1.646-60.623-18.588-76.396.526z" fill="#c2beff"/><path d="M357.616 209.386v1.119c0 11.525-8.771 24.807-24.807 24.807a24.628 24.628 0 0 1-13.389-3.918 18.03 18.03 0 0 0 2.1.106 17.463 17.463 0 0 0 10.825-3.722 8.732 8.732 0 0 1-8.116-6.028 10.991 10.991 0 0 0 1.646.134 9.221 9.221 0 0 0 2.295-.3 8.721 8.721 0 0 1-6.991-8.558v-.106a8.782 8.782 0 0 0 3.918 1.119 8.732 8.732 0 0 1-2.7-11.659 24.784 24.784 0 0 0 17.978 9.123 9.836 9.836 0 0 1-.218-2 8.726 8.726 0 0 1 15.113-5.967 17.168 17.168 0 0 0 5.536-2.1 8.693 8.693 0 0 1-3.834 4.8 17.48 17.48 0 0 0 5.037-1.349 18.737 18.737 0 0 1-4.371 4.506z" opacity=".2"/><path d="M289.46 215.868c-18.233 53.324-16.165 71.312-16.165 71.312l3.918 30.225s-78.921 11.194-66.607-25.747c7.058-21.18 5.474-55.245 2.832-80.449-1.964-18.766-4.511-32.619-4.511-32.619l90.675 9.515c-3.918 10.182-7.275 19.4-10.142 27.763z" fill="#ffd5d8"/><path d="M299.602 188.105a843.181 843.181 0 0 0-10.165 27.762 59.89 59.89 0 0 1-76-4.662c-1.963-18.762-4.51-32.615-4.51-32.615z" opacity=".1"/><circle cx="59.89" cy="59.89" r="59.89" transform="translate(194.396 106.386)" fill="#ffd5d8"/><path d="m294.565 320.759-35.263-15.112 6.157-47.017a76.124 76.124 0 0 1 15.152 3.358c13.579 4.4 31.9 14.334 35.761 36.287a.779.779 0 0 1 0 .112c6.179 35.806-21.807 22.372-21.807 22.372z" fill="#ffd5d8"/><path d="m316.393 298.259-4.735 7.109-18.963 1.265v-12.746s-4.545-14.827-4.545-15.946-7.579-14.413-7.579-14.413l-3.056-2.379 3.118.823c13.579 4.399 31.932 14.334 35.76 36.287z" opacity=".05"/><path d="m277.515 261.149 10.915 20.43v25.188l15.113 3.918-9.515-26.307s-10.916-20.99-16.513-23.229z" fill="#6c63ff"/><path d="M178.703 477.482a58.966 58.966 0 0 1 2.127-18.169c7.141-26.245-4.927-111.664-4.927-111.664s3.358-72.764 48.136-85.078c42.757-11.754 72.764 36.7 75.372 41.1.129.207.19.319.19.319l17.8-7.786.112-.05v.28c.14 3.98 3.2 11.827 7.439 20.9a265.3 265.3 0 0 1 16.724 46.877 271.2 271.2 0 0 1 8.066 54.013c1.741 35.738 9.191 59.258 9.191 59.258z" fill="#6c63ff"/><path d="m341.704 364.188 2.418 16.182-44.778-76.682.09-.039 17.822-7.8.168.33.118.229c.14 3.98 3.2 11.827 7.439 20.9a265.308 265.308 0 0 1 16.723 46.88zM226.608 83.409c-23.6-2.664-48.567 3.123-66.937 18.174s-29.106 39.807-24.98 63.193c3.453 19.456 16.5 38.123 11.844 57.321-4.416 18.236-22.893 28.859-39.617 37.361l-58.429 29.7c-6.308 3.207-13.12 6.952-15.672 13.54-2.664 6.834.134 14.553 3.884 20.872s8.536 12.208 10.288 19.333c2.239 9.084-.929 18.728-5.816 26.7s-11.452 14.777-16.976 22.322c-7.685 10.467-13.411 22.708-14.262 35.649s3.784 26.6 13.8 34.832c9.2 7.556 21.628 9.8 33.522 10.388 23.855 1.175 47.576-3.224 71.085-7.6l22.6-4.215c20.8-3.879 43.356-8.748 56.89-25.025 15.672-18.818 13.864-46.166 10.786-70.447s-6-51.215 8.222-71.152c9.3-13.058 24.863-21.157 32.257-35.38 13.534-26.01-6.157-58.049.2-86.667 1.8-8.1 5.653-15.6 8.054-23.548 4.271-14.144 4.724-34.535-2.6-48-6.737-12.347-25.448-15.924-38.143-17.351z" opacity=".1"/><path d="M225.489 83.409c-23.6-2.664-48.567 3.123-66.937 18.174s-29.106 39.807-24.98 63.193c3.453 19.456 16.5 38.123 11.844 57.321-4.416 18.236-22.893 28.859-39.617 37.361l-58.429 29.7c-6.308 3.207-13.12 6.952-15.672 13.54-2.664 6.834.134 14.553 3.884 20.872s8.536 12.208 10.288 19.333c2.239 9.084-.929 18.728-5.816 26.7s-11.452 14.777-16.976 22.322c-7.685 10.467-13.411 22.708-14.262 35.649s3.784 26.6 13.8 34.832c9.2 7.556 21.628 9.8 33.522 10.388 23.855 1.175 47.576-3.224 71.085-7.6l22.6-4.215c20.8-3.879 43.356-8.748 56.89-25.025 15.672-18.818 13.864-46.166 10.786-70.447s-6-51.215 8.222-71.152c9.3-13.058 24.863-21.157 32.257-35.38 13.534-26.01-6.157-58.049.2-86.667 1.8-8.1 5.653-15.6 8.054-23.548 4.271-14.144 4.724-34.535-2.6-48-6.737-12.347-25.448-15.924-38.143-17.351z" fill="#6c63ff"/><path d="M225.489 83.409c-23.6-2.664-48.567 3.123-66.937 18.174s-29.106 39.807-24.98 63.193c3.453 19.456 16.5 38.123 11.844 57.321-4.416 18.236-22.893 28.859-39.617 37.361l-58.429 29.7c-6.308 3.207-13.12 6.952-15.672 13.54-2.664 6.834.134 14.553 3.884 20.872s8.536 12.208 10.288 19.333c2.239 9.084-.929 18.728-5.816 26.7s-11.452 14.777-16.976 22.322c-7.685 10.467-13.411 22.708-14.262 35.649s3.784 26.6 13.8 34.832c9.2 7.556 21.628 9.8 33.522 10.388 23.855 1.175 47.576-3.224 71.085-7.6l22.6-4.215c20.8-3.879 43.356-8.748 56.89-25.025 15.672-18.818 13.864-46.166 10.786-70.447s-6-51.215 8.222-71.152c9.3-13.058 24.863-21.157 32.257-35.38 13.534-26.01-6.157-58.049.2-86.667 1.8-8.1 5.653-15.6 8.054-23.548 4.271-14.144 4.724-34.535-2.6-48-6.737-12.347-25.448-15.924-38.143-17.351z" opacity=".1"/><path d="m277.515 261.149 41.979 77.068 29.106-14.939s-52.055-70.525-58.771-69.405-12.314 7.276-12.314 7.276z" fill="#6c63ff"/><path d="m355.014 315.163-9.515-27.986s-6.722-68.847-33.022-71.085 6.717 73.324 6.717 73.324 11.754 21.829 7.276 38.061 28.544-12.314 28.544-12.314z" fill="#ffd5d8"/><path d="m220.731 367.586 65.437 79.107s62.689 44.778 80.04 11.754c0 0 7.276-90.115-1.119-111.385s-11.194-34.7-11.194-34.7-34.703 13.431-36.943 3.919l.84 90.955s-39.46-145.243-77.521-127.337q-.795.375-1.567.756c-32.576 16.198-41.185 58.877-17.973 86.931z" opacity=".1"/><path d="m222.97 365.907 65.437 79.111s62.689 44.778 80.04 11.754c0 0 5.037-90.115-3.358-111.385s-8.956-34.7-8.956-34.7-34.702 13.431-36.942 3.916l1.4 112.784s-40.02-167.077-78.081-149.166q-.795.375-1.567.756c-32.576 16.198-41.185 58.877-17.973 86.93z" fill="#6c63ff"/><circle cx="4.478" cy="4.478" r="4.478" transform="translate(384.422 61.328)" fill="#fff"/><circle cx="2.239" cy="2.239" r="2.239" transform="translate(372.108 125.696)" fill="#fff"/><circle cx="2.239" cy="2.239" r="2.239" transform="translate(288.15 63.567)" fill="#fff"/><circle cx="2.239" cy="2.239" r="2.239" transform="translate(102.02 154.628)" fill="#fff"/><circle cx="2.239" cy="2.239" r="2.239" transform="translate(231.618 316.562)" fill="#fff"/><circle cx="2.239" cy="2.239" r="2.239" transform="translate(79.933 213.573)" fill="#fff"/><circle cx="2.239" cy="2.239" r="2.239" transform="translate(468.94 80.359)" fill="#fff"/><circle cx="2.239" cy="2.239" r="2.239" transform="translate(341.883 171.034)" fill="#fff"/><circle cx="2.239" cy="2.239" r="2.239" transform="translate(533.308 141.928)" fill="#fff"/><circle cx="2.239" cy="2.239" r="2.239" transform="translate(386.918 308.552)" fill="#fff"/><path d="M471.174 149.098h-4.651v-4.651h-.778v4.651h-4.641v.778h4.646v4.646h.778v-4.646h4.646zM238.335 426.939h-2.065v-2.071h-.343v2.071h-2.07v.341h2.07v2.065h.347v-2.065h2.065zm92.354-63.249h-2.071v-2.071h-.337v2.071h-2.07v.341h2.07v2.065h.341v-2.065h2.071zm137.692-128.736h-2.071v-2.071h-.337v2.071h-2.07v.341h2.07v2.065h.341v-2.065h2.071zm-94.034 32.464h-2.071v-2.071h-.337v2.071h-2.07v.341h2.07v2.065h.341v-2.065h2.071zm-265.868-34.703h-2.071v-2.071h-.337v2.071h-2.07v.341h2.07v2.065h.341v-2.065h2.071zM332.928 101.18h-2.071v-2.071h-.337v2.071h-2.07v.341h2.07v2.065h.341v-2.065h2.071zM152.137 81.59h-2.065v-2.071h-.343v2.071h-2.07v.341h2.07v2.065h.347v-2.065h2.065z" fill="#fff"/><path d="m405.003 87.126-3.23 8.245v33.706h11.452v6.09h6.453l6.09-6.09h9.331l12.549-12.551v-29.4zm38.369 27.247-7.2 7.176h-11.473l-6.09 6.09v-6.09h-9.683V91.426h34.423zm-7.2-14.7v12.538h-4.3l-.023-12.542zm-11.474 0v12.538h-4.3l-4.323-12.542zm57.49 94.058-9.207-3.84 12.314-29.641 9.207 3.823zm9.4-35.593a5.8 5.8 0 1 1 7.568-3.162 19.187 19.187 0 0 1-7.57 3.162zm25.063 49.912-9.185-3.817 5.995-14.424c1.427-3.437 3.19-7.875-1.522-9.834s-7.069 1.444-8.676 5.306l-6.112 14.687-9.2-3.823 12.314-29.637 8.827 3.666-1.679 4.041.129.056a10.462 10.462 0 0 1 10.7-1.164c9.314 3.868 8.48 10.713 5.172 18.684l-6.767 16.277zM321.767 38.687a9.14 9.14 0 1 0 6.492 2.667 9.157 9.157 0 0 0-6.492-2.667zm0 15.113a5.95 5.95 0 1 1 5.95-5.95 5.95 5.95 0 0 1-5.95 5.95zm11.665-15.482a2.139 2.139 0 1 1 0-.006zm6.062 2.166c-.134-2.86-.789-5.4-2.883-7.483s-4.623-2.743-7.483-2.883c-2.95-.168-11.788-.168-14.732 0-2.855.134-5.385.789-7.484 2.877s-2.743 4.623-2.883 7.483c-.168 2.95-.168 11.788 0 14.732.134 2.86.789 5.4 2.883 7.483s4.623 2.743 7.484 2.883c2.95.168 11.788.168 14.732 0 2.86-.134 5.4-.789 7.483-2.883s2.743-4.623 2.883-7.483c.167-2.949.167-11.754-.001-14.726zm-3.806 17.911a6.028 6.028 0 0 1-3.392 3.392c-2.351.935-7.931.716-10.528.716s-8.183.207-10.528-.716a6.028 6.028 0 0 1-3.392-3.392c-.935-2.351-.716-7.931-.716-10.528s-.207-8.183.716-10.528a6.028 6.028 0 0 1 3.392-3.392c2.351-.935 7.931-.716 10.528-.716s8.183-.207 10.528.716a6.028 6.028 0 0 1 3.392 3.392c.935 2.351.716 7.931.716 10.528s.213 8.161-.717 10.489zm107.505 186.351v32.861a2.037 2.037 0 0 1-2.037 2.037h-9.415v-14.331h4.8l.716-5.6h-5.524v-3.56c0-1.618.448-2.715 2.765-2.715h2.95v-4.987a39.692 39.692 0 0 0-4.3-.224c-4.254 0-7.176 2.6-7.176 7.372v4.114h-4.821v5.6h4.814v14.307h-17.677a2.043 2.043 0 0 1-2.037-2.037v-32.837a2.043 2.043 0 0 1 2.037-2.037h32.861a2.043 2.043 0 0 1 2.044 2.037zm92.16-144.376a5.871 5.871 0 0 0-3.045-5.01c-3.314-1.808-17.514-5.228-17.514-5.228s-14.206-3.42-17.978-3.319a5.872 5.872 0 0 0-4.987 3.073c-1.808 3.358-3.6 10.775-3.6 10.775s-1.791 7.439-1.679 11.234a5.782 5.782 0 0 0 3.056 4.942c3.314 1.808 17.514 5.228 17.514 5.228s14.206 3.42 17.978 3.319a5.782 5.782 0 0 0 4.976-3.011c1.808-3.358 3.6-10.775 3.6-10.775s1.772-7.428 1.679-11.228zm-30.684 11.4 3.252-13.506 10.249 9.61-13.495 3.918z" opacity=".2"/></g></svg>